<?xml version="1.0" standalone="no"?>
<!DOCTYPE svg PUBLIC "-//W3C//DTD SVG 20010904//EN"
 "http://www.w3.org/TR/2001/REC-SVG-20010904/DTD/svg10.dtd">
<svg version="1.0" xmlns="http://www.w3.org/2000/svg"
 width="509.000000pt" height="290.000000pt" viewBox="0 0 509.000000 290.000000"
 preserveAspectRatio="xMidYMid meet">

<g transform="translate(0.000000,290.000000) scale(0.100000,-0.100000)"
fill="#000000" stroke="none">
<path d="M3240 2829 c-314 -97 -1700 -562 -1710 -574 -11 -13 -11 -19 3 -32 8
-9 125 -60 258 -113 200 -81 244 -102 252 -121 4 -13 42 -132 84 -264 41 -132
78 -244 83 -248 18 -20 53 10 160 133 83 95 116 127 129 122 19 -7 204 -114
339 -196 150 -91 173 -101 187 -83 24 34 360 1358 351 1383 -7 19 -59 17 -136
-7z m-10 -345 c-101 -397 -242 -928 -249 -941 -7 -14 -177 82 -479 270 l-162
101 24 21 c14 11 152 131 308 267 342 297 612 527 616 523 2 -1 -25 -110 -58
-241z m-210 184 c-36 -23 -266 -166 -512 -318 l-446 -277 -201 80 c-111 44
-199 83 -196 86 7 6 1394 469 1410 470 6 0 -19 -18 -55 -41z m-5 -86 c-340
-288 -750 -646 -761 -663 -6 -10 -33 -186 -34 -216 -1 -58 -57 95 -94 257 -8
35 -14 65 -13 66 1 1 171 107 377 236 206 129 411 258 455 286 82 53 105 64
70 34z m-612 -789 c17 -19 15 -22 -49 -97 -36 -43 -68 -75 -72 -72 -5 6 17
205 25 218 6 10 74 -25 96 -49z"/>
<path d="M20 755 l0 -45 2525 0 2525 0 0 45 0 45 -2525 0 -2525 0 0 -45z"/>
<path d="M1332 444 c-13 -24 -4 -51 21 -58 43 -11 75 32 45 62 -17 17 -55 15
-66 -4z"/>
<path d="M2912 444 c-13 -24 -4 -51 21 -58 43 -11 75 32 45 62 -17 17 -55 15
-66 -4z"/>
<path d="M1180 255 l0 -185 35 0 35 0 0 185 0 185 -35 0 -35 0 0 -185z"/>
<path d="M1750 255 l0 -185 34 0 33 0 6 76 c7 89 25 124 65 124 50 0 57 -12
60 -110 l4 -90 34 0 34 0 0 94 c0 52 -4 106 -10 120 -19 50 -83 65 -167 40
-22 -6 -23 -4 -23 55 l0 61 -35 0 -35 0 0 -185z"/>
<path d="M146 374 c-3 -26 -6 -105 -6 -175 l0 -129 135 0 135 0 0 30 0 30 -95
0 c-103 0 -101 -1 -89 59 l7 31 73 0 74 0 0 30 0 30 -80 0 -80 0 0 35 0 35 90
0 90 0 0 35 0 35 -124 0 -123 0 -7 -46z"/>
<path d="M2284 405 c-17 -9 -36 -27 -43 -41 -31 -68 1 -115 99 -145 38 -11 74
-27 81 -35 34 -41 -43 -67 -123 -41 -47 15 -49 15 -63 -6 -12 -17 -12 -24 -2
-33 33 -31 148 -45 201 -24 45 17 66 46 66 93 0 54 -16 70 -95 97 -32 11 -70
27 -83 36 -23 15 -23 16 -5 36 16 18 26 20 90 14 67 -6 72 -5 78 15 11 33 -8
42 -92 46 -58 3 -86 0 -109 -12z"/>
<path d="M3785 411 c-39 -17 -59 -50 -58 -94 3 -53 28 -75 123 -106 54 -17 70
-26 70 -41 0 -39 -65 -51 -138 -26 -35 13 -42 13 -52 1 -33 -40 21 -73 118
-74 100 -2 161 45 148 114 -9 46 -24 60 -99 84 -35 12 -73 28 -86 37 -22 16
-22 17 -4 36 16 18 26 20 90 14 67 -6 72 -5 78 15 4 11 2 26 -4 32 -13 13
-159 20 -186 8z"/>
<path d="M3074 373 c-4 -16 -15 -35 -26 -44 -22 -17 -17 -59 6 -59 9 0 15 -24
19 -76 3 -41 11 -82 17 -90 29 -34 140 -43 140 -11 0 18 -21 37 -41 37 -26 0
-40 24 -46 84 l-6 55 34 3 c28 2 35 7 37 30 3 22 -2 27 -27 33 -21 4 -32 15
-40 36 -14 40 -58 42 -67 2z"/>
<path d="M4064 373 c-4 -16 -15 -35 -26 -44 -22 -17 -17 -59 6 -59 9 0 15 -23
20 -71 9 -101 32 -128 107 -129 31 0 54 23 45 45 -3 8 -17 15 -31 15 -30 0
-45 30 -45 94 0 39 2 43 33 51 43 13 51 52 11 57 -26 3 -37 14 -48 51 -4 11
-16 17 -35 17 -25 0 -32 -5 -37 -27z"/>
<path d="M470 205 l0 -135 40 0 40 0 0 65 c0 36 7 81 14 100 13 31 19 35 50
35 47 0 56 -19 56 -119 l0 -81 40 0 40 0 0 95 c0 111 -13 147 -61 164 -41 14
-72 14 -104 -1 -19 -9 -28 -9 -37 0 -7 7 -27 12 -45 12 l-33 0 0 -135z"/>
<path d="M890 333 c-30 -11 -60 -48 -71 -85 -21 -82 35 -158 116 -158 24 0 56
5 70 10 24 9 26 8 19 -12 -14 -46 -24 -51 -100 -45 -72 5 -94 -2 -94 -30 0
-10 27 -13 113 -13 159 0 157 -2 157 193 l0 147 -34 0 c-19 0 -36 -6 -38 -12
-4 -10 -10 -10 -32 0 -27 12 -79 15 -106 5z m115 -69 c11 -11 15 -30 13 -58
-3 -34 -7 -42 -30 -50 -63 -22 -120 31 -93 85 8 15 20 29 27 32 27 11 67 6 83
-9z"/>
<path d="M1330 205 l0 -135 35 0 35 0 0 135 0 135 -35 0 -35 0 0 -135z"/>
<path d="M1514 326 c-18 -8 -36 -27 -43 -45 -20 -47 3 -76 81 -99 40 -11 63
-23 63 -33 0 -11 -15 -14 -71 -12 -65 2 -72 0 -77 -18 -4 -16 2 -24 28 -35 77
-32 175 -7 194 48 17 47 -6 73 -81 96 -86 25 -85 45 2 52 57 4 65 8 68 26 2
15 -4 23 -20 28 -39 10 -111 6 -144 -8z"/>
<path d="M2560 170 l0 -170 40 0 40 0 0 43 0 42 73 -3 c70 -4 73 -3 102 28 27
28 30 38 30 95 0 59 -3 67 -31 96 -37 36 -97 48 -146 28 -24 -10 -33 -10 -36
-1 -2 7 -19 12 -38 12 l-34 0 0 -170z m193 92 c47 -51 21 -125 -43 -125 -62 0
-90 65 -49 117 24 31 68 35 92 8z"/>
<path d="M2910 205 l0 -135 35 0 35 0 0 135 0 135 -35 0 -35 0 0 -135z"/>
<path d="M3319 316 c-45 -31 -63 -73 -56 -132 6 -60 36 -90 101 -105 88 -19
174 17 134 57 -11 12 -21 12 -42 4 -43 -16 -73 -12 -103 15 l-28 24 103 1 102
0 0 39 c0 98 -125 156 -211 97z m115 -42 c9 -3 16 -15 16 -25 0 -16 -8 -19
-53 -19 -63 0 -73 7 -50 32 16 18 57 24 87 12z"/>
<path d="M4319 320 c-69 -36 -90 -134 -42 -198 42 -56 155 -65 213 -16 33 29
54 91 45 133 -6 29 -44 70 -82 90 -32 16 -93 13 -134 -9z m120 -66 c42 -53 14
-117 -51 -117 -64 0 -89 82 -37 126 30 25 64 21 88 -9z"/>
<path d="M4596 309 c-3 -17 -6 -78 -6 -135 l0 -104 39 0 38 0 6 78 c8 99 12
110 51 120 26 7 32 14 34 40 4 36 -4 38 -56 20 -28 -10 -36 -10 -39 0 -3 6
-17 12 -33 12 -23 0 -29 -5 -34 -31z"/>
<path d="M4861 322 c-39 -20 -71 -72 -71 -118 0 -68 75 -134 153 -134 49 0 99
26 95 48 -3 14 -14 17 -62 14 -58 -2 -114 18 -102 37 3 5 46 11 96 13 50 3 93
8 96 11 11 10 -19 92 -39 110 -47 41 -110 48 -166 19z m115 -57 c16 -13 17
-16 4 -25 -17 -11 -93 -14 -103 -3 -13 12 26 43 53 43 14 0 35 -7 46 -15z"/>
</g>
</svg>
